<svg width="12" height="12" viewBox="0 0 12 12" fill="none" xmlns="http://www.w3.org/2000/svg">
<path d="M11.4902 1.81003L11.4902 1.81004L7.10025 6.19992L11.4902 10.5898L11.4902 10.5898C11.7166 10.8163 11.7166 11.1835 11.4902 11.4101L11.4902 11.4101C11.2636 11.6365 10.8964 11.6365 10.6699 11.4101L10.6698 11.4101L6.28 7.02017L1.89012 11.4101L1.89011 11.4101C1.66361 11.6365 1.29639 11.6365 1.06989 11.4101L1.06988 11.4101C0.843374 11.1835 0.843374 10.8163 1.06988 10.5898L1.06988 10.5898L5.45976 6.19992L1.06989 1.81004C1.06988 1.81004 1.06988 1.81004 1.06988 1.81004C0.843373 1.58354 0.843372 1.21631 1.06988 0.989807C1.06988 0.989806 1.06988 0.989805 1.06989 0.989804M11.4902 1.81003L1.06989 0.989804M11.4902 1.81003C11.7166 1.58353 11.7166 1.21632 11.4902 0.989817L11.4902 0.9898C11.2636 0.763296 10.8964 0.763296 10.6698 0.9898L10.6698 0.989806L6.28 5.37968L1.89012 0.989807M11.4902 1.81003L1.89012 0.989807M1.06989 0.989804C1.29639 0.763294 1.66362 0.763295 1.89012 0.989806M1.06989 0.989804L1.89012 0.989806M1.89012 0.989806C1.89012 0.989806 1.89012 0.989807 1.89012 0.989807M1.89012 0.989806L1.89012 0.989807" fill="#5E5ADB" stroke="#5E5ADB" stroke-width="0.2"/>
</svg>
