<svg width="17" height="17" viewBox="0 0 17 17" fill="none" xmlns="http://www.w3.org/2000/svg">
<path d="M16.0953 1.69503L16.0952 1.69504L9.51036 8.27987L16.0952 14.8646L16.0953 14.8646C16.4349 15.2044 16.4349 15.7553 16.0953 16.0951L16.0952 16.0951C15.7554 16.4348 15.2046 16.4348 14.8648 16.0951L14.8647 16.0951L8.27999 9.51024L1.69517 16.0951L1.69515 16.0951C1.3554 16.4348 0.804577 16.4348 0.464827 16.0951L0.464803 16.0951C0.125046 15.7553 0.125046 15.2044 0.464803 14.8646L0.464811 14.8646L7.04962 8.27987L0.464814 1.69505C0.464813 1.69505 0.464812 1.69505 0.464811 1.69504C0.125044 1.35529 0.125044 0.804445 0.464808 0.464692C0.46481 0.46469 0.464812 0.464688 0.464814 0.464686M16.0953 1.69503L0.464814 0.464686M16.0953 1.69503C16.4349 1.35528 16.4349 0.804454 16.0953 0.464705L16.0952 0.464681C15.7554 0.124924 15.2046 0.124924 14.8647 0.464681L14.8647 0.464689L8.27999 7.04949L1.69517 0.464692M16.0953 1.69503L1.69517 0.464692M0.464814 0.464686C0.804567 0.124921 1.35541 0.124922 1.69517 0.464689M0.464814 0.464686L1.69517 0.464689M1.69517 0.464689C1.69517 0.46469 1.69517 0.464691 1.69517 0.464692M1.69517 0.464689L1.69517 0.464692" fill="#414141" stroke="#414141" stroke-width="0.3"/>
</svg>
